<?xml version="1.0" encoding="UTF-8" standalone="no"?>
<!-- Created with Inkscape (http://www.inkscape.org/) -->

<svg
   xmlns:dc="http://purl.org/dc/elements/1.1/"
   xmlns:cc="http://creativecommons.org/ns#"
   xmlns:rdf="http://www.w3.org/1999/02/22-rdf-syntax-ns#"
   xmlns:svg="http://www.w3.org/2000/svg"
   xmlns="http://www.w3.org/2000/svg"
   xmlns:sodipodi="http://sodipodi.sourceforge.net/DTD/sodipodi-0.dtd"
   xmlns:inkscape="http://www.inkscape.org/namespaces/inkscape"
   width="197mm"
   height="278mm"
   viewBox="0 0 197mm 278mm"
   id="svg3785"
   version="1.1"
   inkscape:version="0.48.4 r9939"
   sodipodi:docname="harry1.svg">
  <defs
     id="defs3787">
    <inkscape:perspective
       sodipodi:type="inkscape:persp3d"
       inkscape:vp_x="0 : 526.18109 : 1"
       inkscape:vp_y="0 : 1000 : 0"
       inkscape:vp_z="744.09448 : 526.18109 : 1"
       inkscape:persp3d-origin="372.04724 : 350.78739 : 1"
       id="perspective3827" />
  </defs>
  <sodipodi:namedview
     id="base"
     pagecolor="#ffffff"
     bordercolor="#666666"
     borderopacity="1.0"
     inkscape:pageopacity="0.0"
     inkscape:pageshadow="2"
     inkscape:zoom="0.35"
     inkscape:cx="654.93697"
     inkscape:cy="554.77151"
     inkscape:document-units="px"
     inkscape:current-layer="layer1"
     showgrid="false"
     inkscape:snap-nodes="true"
     inkscape:window-width="1024"
     inkscape:window-height="574"
     inkscape:window-x="0"
     inkscape:window-y="0"
     inkscape:window-maximized="1" />
  <metadata
     id="metadata3790">
    <rdf:RDF>
      <cc:Work
         rdf:about="">
        <dc:format>image/svg+xml</dc:format>
        <dc:type
           rdf:resource="http://purl.org/dc/dcmitype/StillImage" />
        <dc:title />
      </cc:Work>
    </rdf:RDF>
  </metadata>
  <g
     inkscape:label="Capa 1"
     inkscape:groupmode="layer"
     id="layer1">
    <path
       sodipodi:type="arc"
       style="opacity:0;fill:none;stroke:#000000;stroke-width:5;stroke-miterlimit:4;stroke-opacity:1;stroke-dasharray:none"
       id="path3797"
       sodipodi:cx="237.14285"
       sodipodi:cy="530.93359"
       sodipodi:rx="122.85714"
       sodipodi:ry="130"
       d="m 359.99999,530.93359 a 122.85714,130 0 1 1 -245.71428,0 122.85714,130 0 1 1 245.71428,0 z" />
    <path
       style="fill:none;stroke:#000000;stroke-width:6.7431922;stroke-miterlimit:4;stroke-opacity:1"
       d="m 334.19017,326.7502 c 0,69.16301 -56.06771,125.23072 -125.23072,125.23072 -69.163,0 -125.230698,-56.06771 -125.230698,-125.23072 0,-69.16301 56.067698,-125.2307 125.230698,-125.2307 69.16301,0 125.23072,56.06769 125.23072,125.2307 z"
       inkscape:connector-curvature="0"
       sodipodi:nodetypes="sssss"
       id="path3801" />
    <path
       style="fill:none;stroke:#000000;stroke-width:6.7431922;stroke-miterlimit:4;stroke-opacity:1"
       d="m 667.24741,327.5059 c 0,69.16301 -56.0677,125.23071 -125.2307,125.23071 -69.16301,0 -125.23071,-56.0677 -125.23071,-125.23071 0,-69.16302 56.0677,-125.23071 125.23071,-125.23071 69.163,0 125.2307,56.06769 125.2307,125.23071 z"
       id="path3801-9"
       inkscape:connector-curvature="0" />
    <path
       style="fill:none;stroke:#000000;stroke-width:5;stroke-linecap:butt;stroke-linejoin:miter;stroke-miterlimit:4;stroke-opacity:1;stroke-dasharray:none"
       d="m 327.31332,295.81435 93.94286,0 0,0 0,0"
       id="path3853"
       inkscape:connector-curvature="0" />
    <path
       style="fill:none;stroke:#ef9a9a;stroke-width:6.49068308000000016;stroke-linecap:butt;stroke-linejoin:miter;stroke-miterlimit:4;stroke-opacity:1;stroke-dasharray:none"
       d="m 234.12067,1.6789516 c 0,94.5785234 0,94.5785234 0,94.5785234 l -37.08962,-50.070987 0,1.854492 0,96.433 0,0 0,-5.56343 0,0"
       id="path4363"
       inkscape:connector-curvature="0" />
    <text
       xml:space="preserve"
       style="font-size:64px;font-style:normal;font-variant:normal;font-weight:500;font-stretch:normal;line-height:100%;letter-spacing:0px;word-spacing:0px;fill:#000000;fill-opacity:1;stroke:none;font-family:URW Chancery L;-inkscape-font-specification:URW Chancery L Bold Italic"
       x="368.60757"
       y="820.93359"
       id="text4365"
       sodipodi:linespacing="100%"><tspan
         sodipodi:role="line"
         id="tspan4367"
         x="368.60757"
         y="820.93359"
         style="font-style:normal;font-weight:500;text-align:center;line-height:100%;text-anchor:middle;baseline-shift:baseline;-inkscape-font-specification:URW Chancery L Medium Italic">Merry Christmas</tspan><tspan
         sodipodi:role="line"
         x="368.60757"
         y="884.93359"
         id="tspan4369"
         style="font-style:normal;font-weight:500;text-align:center;line-height:100%;text-anchor:middle;baseline-shift:baseline;-inkscape-font-specification:URW Chancery L Medium Italic" /><tspan
         sodipodi:role="line"
         x="368.60757"
         y="948.93359"
         id="tspan4371"
         style="font-style:normal;font-weight:500;text-align:center;line-height:100%;text-anchor:middle;baseline-shift:baseline;-inkscape-font-specification:URW Chancery L Medium Italic">From your favorite muggle</tspan></text>
    <path
       style="fill:#f44336;stroke:none"
       d="m 0.22937212,588.11278 c 1.54500138,0 3.06829518,0 4.57203848,0 21.1701124,0 38.4656584,0 57.9125014,0 l 0,148.02004 -57.9125014,0 -4.57203848,0 z"
       id="rect4377"
       inkscape:connector-curvature="0"
       sodipodi:nodetypes="csccccc" />
    <path
       style="fill:#4caf50;stroke:none"
       d="m 62.121144,588.11272 c 1.544997,0 3.068293,0 4.572036,0 21.170113,0 38.46566,0 57.9125,0 l 0,148.02003 -57.9125,0 -4.572036,0 z"
       id="rect4377-2"
       inkscape:connector-curvature="0"
       sodipodi:nodetypes="csccccc" />
    <path
       style="fill:#f44336;stroke:none"
       d="m 124.55584,588.11276 c 1.545,0 3.06831,0 4.57204,0 21.17011,0 38.46567,0 57.91251,0 l 0,148.02004 -57.91251,0 -4.57204,0 z"
       id="rect4377-25"
       inkscape:connector-curvature="0"
       sodipodi:nodetypes="csccccc" />
    <path
       style="fill:#4caf50;stroke:none"
       d="m 186.44762,588.1127 c 1.545,0 3.06828,0 4.57204,0 21.17011,0 38.46565,0 57.9125,0 l 0,148.02003 -57.9125,0 -4.57204,0 z"
       id="rect4377-2-6"
       inkscape:connector-curvature="0"
       sodipodi:nodetypes="csccccc" />
    <path
       style="fill:#f44336;stroke:none"
       d="m 248.36124,588.11276 c 1.54501,0 3.06831,0 4.57205,0 21.17011,0 38.46565,0 57.91249,0 l 0,148.02004 -57.91249,0 -4.57205,0 z"
       id="rect4377-1"
       inkscape:connector-curvature="0"
       sodipodi:nodetypes="csccccc" />
    <path
       style="fill:#4caf50;stroke:none"
       d="m 310.25302,588.1127 c 1.54501,0 3.0683,0 4.57203,0 21.17013,0 38.46567,0 57.91251,0 l 0,148.02003 -57.91251,0 -4.57203,0 z"
       id="rect4377-2-62"
       inkscape:connector-curvature="0"
       sodipodi:nodetypes="csccccc" />
    <path
       style="fill:#f44336;stroke:none"
       d="m 372.14482,588.11276 c 1.545,0 3.06829,0 4.57204,0 21.17011,0 38.46565,0 57.91249,0 l 0,148.02004 -57.91249,0 -4.57204,0 z"
       id="rect4377-5"
       inkscape:connector-curvature="0"
       sodipodi:nodetypes="csccccc" />
    <path
       style="fill:#4caf50;stroke:none"
       d="m 434.03659,588.1127 c 1.54498,0 3.06829,0 4.57204,0 21.1701,0 38.46565,0 57.9125,0 l 0,148.02003 -57.9125,0 -4.57204,0 z"
       id="rect4377-2-8"
       inkscape:connector-curvature="0"
       sodipodi:nodetypes="csccccc" />
    <path
       style="fill:#f44336;stroke:none"
       d="m 495.90656,588.11276 c 1.545,0 3.06831,0 4.57205,0 21.1701,0 38.46566,0 57.91249,0 l 0,148.02004 -57.91249,0 -4.57205,0 z"
       id="rect4377-6"
       inkscape:connector-curvature="0"
       sodipodi:nodetypes="csccccc" />
    <path
       style="fill:#4caf50;stroke:none"
       d="m 557.79834,588.1127 c 1.54499,0 3.0683,0 4.57204,0 21.17009,0 38.46566,0 57.91249,0 l 0,148.02003 -57.91249,0 -4.57204,0 z"
       id="rect4377-2-0"
       inkscape:connector-curvature="0"
       sodipodi:nodetypes="csccccc" />
    <path
       style="fill:#f44336;stroke:none"
       d="m 619.69015,588.11276 c 1.54499,0 3.06827,0 4.57202,0 21.17013,0 38.46566,0 57.91252,0 l 0,148.02004 -57.91252,0 -4.57202,0 z"
       id="rect4377-9"
       inkscape:connector-curvature="0"
       sodipodi:nodetypes="csccccc" />
    <path
       style="fill:#4caf50;stroke:none"
       d="m 681.58192,588.1127 c 1.54576,0 3.06982,0 4.57435,0 21.1808,0 38.48507,0 57.94175,0 l 0,148.02003 -57.94175,0 -4.57435,0 z"
       id="rect4377-2-4"
       inkscape:connector-curvature="0"
       sodipodi:nodetypes="csccccc" />
    <path
       style="fill:none;stroke:#000000;stroke-width:6;stroke-linecap:butt;stroke-linejoin:miter;stroke-miterlimit:4;stroke-opacity:1;stroke-dasharray:none"
       d="m 87.697473,296.09503 -16.249512,0"
       id="path3847"
       inkscape:connector-curvature="0" />
    <path
       style="fill:none;stroke:#000000;stroke-width:6;stroke-linecap:butt;stroke-linejoin:miter;stroke-miterlimit:4;stroke-opacity:1;stroke-dasharray:none"
       d="m 678.95727,296.11533 -16.24952,0"
       id="path3847-0"
       inkscape:connector-curvature="0" />
  </g>
</svg>
