<?xml version="1.0" encoding="UTF-8" standalone="no"?>
<!-- Created with Inkscape (http://www.inkscape.org/) -->

<svg
   xmlns:dc="http://purl.org/dc/elements/1.1/"
   xmlns:cc="http://creativecommons.org/ns#"
   xmlns:rdf="http://www.w3.org/1999/02/22-rdf-syntax-ns#"
   xmlns:svg="http://www.w3.org/2000/svg"
   xmlns="http://www.w3.org/2000/svg"
   xmlns:sodipodi="http://sodipodi.sourceforge.net/DTD/sodipodi-0.dtd"
   xmlns:inkscape="http://www.inkscape.org/namespaces/inkscape"
   width="197mm"
   height="278mm"
   viewBox="0 0 197mm 278mm"
   id="svg3785"
   version="1.1"
   inkscape:version="0.48.4 r9939"
   sodipodi:docname="harry1.svg">
  <defs
     id="defs3787">
    <inkscape:perspective
       sodipodi:type="inkscape:persp3d"
       inkscape:vp_x="0 : 526.18109 : 1"
       inkscape:vp_y="0 : 1000 : 0"
       inkscape:vp_z="744.09448 : 526.18109 : 1"
       inkscape:persp3d-origin="372.04724 : 350.78739 : 1"
       id="perspective3827" />
  </defs>
  <sodipodi:namedview
     id="base"
     pagecolor="#ffffff"
     bordercolor="#666666"
     borderopacity="1.0"
     inkscape:pageopacity="0.0"
     inkscape:pageshadow="2"
     inkscape:zoom="0.7"
     inkscape:cx="239.4807"
     inkscape:cy="288.01495"
     inkscape:document-units="px"
     inkscape:current-layer="layer1"
     showgrid="false"
     inkscape:snap-nodes="true"
     inkscape:window-width="1024"
     inkscape:window-height="574"
     inkscape:window-x="0"
     inkscape:window-y="0"
     inkscape:window-maximized="1" />
  <metadata
     id="metadata3790">
    <rdf:RDF>
      <cc:Work
         rdf:about="">
        <dc:format>image/svg+xml</dc:format>
        <dc:type
           rdf:resource="http://purl.org/dc/dcmitype/StillImage" />
        <dc:title />
      </cc:Work>
    </rdf:RDF>
  </metadata>
  <g
     inkscape:label="Capa 1"
     inkscape:groupmode="layer"
     id="layer1">
    <path
       sodipodi:type="arc"
       style="opacity:0;fill:none;stroke:#000000;stroke-width:5;stroke-miterlimit:4;stroke-opacity:1;stroke-dasharray:none"
       id="path3797"
       sodipodi:cx="237.14285"
       sodipodi:cy="530.93359"
       sodipodi:rx="122.85714"
       sodipodi:ry="130"
       d="m 359.99999,530.93359 a 122.85714,130 0 1 1 -245.71428,0 122.85714,130 0 1 1 245.71428,0 z" />
    <path
       style="fill:none;stroke:#000000;stroke-width:6.7431922;stroke-miterlimit:4;stroke-opacity:1"
       d="m 334.19017,326.7502 c 0,69.16301 -56.06771,125.23072 -125.23072,125.23072 -69.163,0 -125.230698,-56.06771 -125.230698,-125.23072 0,-69.16301 56.067698,-125.2307 125.230698,-125.2307 69.16301,0 125.23072,56.06769 125.23072,125.2307 z"
       inkscape:connector-curvature="0"
       sodipodi:nodetypes="sssss"
       id="path3801" />
    <path
       style="fill:none;stroke:#000000;stroke-width:6.7431922;stroke-miterlimit:4;stroke-opacity:1"
       d="m 667.24741,327.5059 c 0,69.16301 -56.0677,125.23071 -125.2307,125.23071 -69.16301,0 -125.23071,-56.0677 -125.23071,-125.23071 0,-69.16302 56.0677,-125.23071 125.23071,-125.23071 69.163,0 125.2307,56.06769 125.2307,125.23071 z"
       id="path3801-9"
       inkscape:connector-curvature="0" />
    <path
       style="fill:none;stroke:#000000;stroke-width:5;stroke-linecap:butt;stroke-linejoin:miter;stroke-miterlimit:4;stroke-opacity:1;stroke-dasharray:none"
       d="m 327.31332,295.81435 93.94286,0 0,0 0,0"
       id="path3853"
       inkscape:connector-curvature="0" />
    <path
       style="fill:none;stroke:#ef9a9a;stroke-width:6.49068308000000016;stroke-linecap:butt;stroke-linejoin:miter;stroke-miterlimit:4;stroke-opacity:1;stroke-dasharray:none"
       d="m 234.12067,1.6789516 c 0,94.5785234 0,94.5785234 0,94.5785234 l -37.08962,-50.070987 0,1.854492 0,96.433 0,0 0,-5.56343 0,0"
       id="path4363"
       inkscape:connector-curvature="0" />
    <g
       style="font-size:64px;font-style:normal;font-variant:normal;font-weight:500;font-stretch:normal;line-height:100%;letter-spacing:0px;word-spacing:0px;fill:#000000;fill-opacity:1;stroke:none;font-family:URW Chancery L;-inkscape-font-specification:URW Chancery L Bold Italic"
       id="text4365">
      <path
         d="m 183.44457,820.93359 c 1.152,0.064 2.11201,0.064 2.752,0.064 4.992,0 8.32001,-1.472 11.072,-4.864 2.048,-2.62399 2.81601,-4.224 4.352,-9.472 0.704,-2.55999 3.07201,-11.264 4.16,-15.68 2.24,23.10398 2.304,23.61601 2.432,28.736 l 3.136,-2.432 c 2.24,-4.79999 6.52802,-11.45601 17.088,-26.496 l -0.64,2.816 c -0.192,0.96 -0.704,2.88001 -1.472,5.696 -3.71199,13.82399 -4.48,16.768 -4.608,17.088 -0.512,1.472 -0.832,2.816 -0.832,3.712 0,0.896 0.70401,1.664 1.536,1.664 0.32,0 0.704,-0.064 1.216,-0.128 0.64,-0.128 4.41601,-0.768 6.016,-1.024 l 3.008,-0.384 c 0.192,-0.064 0.70401,-0.128 1.536,-0.256 l 1.344,-1.6 c -1.08799,0.064 -2.112,0.128 -2.432,0.192 -1.08799,0.064 -2.112,0.128 -2.624,0.128 -2.04799,0 -3.2,-0.96 -3.2,-2.56 0,-1.66399 0.064,-2.048 1.728,-8.832 2.752,-11.13599 2.94401,-11.904 4.16,-16.256 2.56,-8.89599 2.88001,-9.6 4.544,-9.6 0.576,0 1.40801,0.064 2.24,0.256 0.192,0.064 0.96001,0.192 1.728,0.32 l 2.624,-3.584 c -1.15199,-0.32 -1.792,-0.384 -2.56,-0.384 -1.66399,0 -3.072,0.51201 -5.376,1.856 -3.58399,2.048 -4.224,2.62401 -6.528,5.888 l -8.64,12.032 -7.232,10.496 -1.6,2.304 c -0.83199,-9.72799 -2.496,-23.872 -3.328,-28.352 l -1.984,1.6 c -2.43199,-0.32 -3.648,-0.384 -5.184,-0.384 -4.28799,0 -6.848,1.08801 -9.856,4.224 -3.45599,3.456 -5.504,7.55201 -5.504,10.816 0,1.856 0.38401,3.52001 1.472,5.888 l 4.864,-3.392 c -1.53599,-3.32799 -2.048,-4.928 -2.048,-6.784 0,-4.15999 3.13601,-6.464 8.704,-6.464 1.472,0 2.49601,0.064 4.608,0.384 -2.81599,11.45599 -6.272,23.42401 -7.424,25.472 -1.21599,2.24 -2.816,3.2 -5.568,3.2 -1.08799,0 -1.088,0 -4.736,-0.32 l -2.944,4.416"
         style="text-align:center;line-height:100%;text-anchor:middle;baseline-shift:baseline;-inkscape-font-specification:URW Chancery L Medium Italic"
         id="path3015" />
      <path
         d="m 257.80257,812.16559 c -4.79999,4.16 -7.872,5.952 -10.304,5.952 -1.59999,0 -2.944,-1.088 -3.392,-2.752 -0.256,-1.024 -0.32,-1.728 -0.32,-3.584 2.88,-1.79199 4.80001,-3.136 8.576,-5.952 3.456,-2.62399 4.8,-4.736 4.8,-7.616 0,-2.23999 -1.408,-3.584 -3.648,-3.584 -1.40799,0 -2.432,0.32 -3.904,1.152 -2.43199,1.408 -4.608,3.13601 -5.952,4.672 -2.43199,2.944 -4.608,9.98401 -4.608,15.168 0,3.776 1.98401,6.144 5.248,6.144 3.776,0 8.44801,-2.688 13.504,-7.744 l 0,-1.856 m -13.824,-2.688 c 1.088,-6.84799 4.03201,-12.16 6.784,-12.16 1.088,0 1.792,1.08801 1.792,2.624 0,3.2 -1.728,5.12001 -8.576,9.536"
         style="text-align:center;line-height:100%;text-anchor:middle;baseline-shift:baseline;-inkscape-font-specification:URW Chancery L Medium Italic"
         id="path3017" />
      <path
         d="m 260.99257,821.57359 4.928,-1.856 4.8,-18.24 c 2.176,-1.59999 3.64801,-2.24 5.376,-2.24 1.408,0 2.24001,0.51201 3.392,1.984 l 1.92,-6.08 c -1.21599,-0.384 -1.728,-0.512 -2.368,-0.512 -1.15199,0 -2.496,0.576 -4.224,1.792 l -3.776,2.752 c 0.064,-0.512 0.192,-0.832 0.192,-1.024 0.512,-2.11199 0.576,-2.496 0.576,-2.816 0,-0.384 -0.384,-0.704 -0.832,-0.704 -0.83199,0 -6.464,2.75201 -10.368,5.12 l -0.192,1.728 c 3.456,-1.79199 3.84001,-1.92 4.608,-1.92 0.832,0 1.216,0.448 1.216,1.344 0,0.896 -0.64,3.90401 -1.408,6.656 l -3.84,14.016"
         style="text-align:center;line-height:100%;text-anchor:middle;baseline-shift:baseline;-inkscape-font-specification:URW Chancery L Medium Italic"
         id="path3019" />
      <path
         d="m 280.24257,821.57359 4.928,-1.856 4.8,-18.24 c 2.176,-1.59999 3.64801,-2.24 5.376,-2.24 1.408,0 2.24001,0.51201 3.392,1.984 l 1.92,-6.08 c -1.21599,-0.384 -1.728,-0.512 -2.368,-0.512 -1.15199,0 -2.496,0.576 -4.224,1.792 l -3.776,2.752 c 0.064,-0.512 0.192,-0.832 0.192,-1.024 0.512,-2.11199 0.576,-2.496 0.576,-2.816 0,-0.384 -0.384,-0.704 -0.832,-0.704 -0.83199,0 -6.464,2.75201 -10.368,5.12 l -0.192,1.728 c 3.456,-1.79199 3.84001,-1.92 4.608,-1.92 0.832,0 1.216,0.448 1.216,1.344 0,0.896 -0.64,3.90401 -1.408,6.656 l -3.84,14.016"
         style="text-align:center;line-height:100%;text-anchor:middle;baseline-shift:baseline;-inkscape-font-specification:URW Chancery L Medium Italic"
         id="path3021" />
      <path
         d="m 294.43657,836.35759 c 1.984,0.256 4.80001,0.448 7.04,0.448 4.48,0 7.04001,-1.216 10.688,-5.12 3.712,-3.96799 3.96801,-4.67201 6.208,-15.104 2.24,-10.30399 3.45601,-15.104 5.632,-22.208 -0.83199,0.448 -1.536,0.832 -1.792,0.96 l -2.24,1.088 c -0.32,0.192 -0.832,0.384 -1.408,0.704 l -3.904,15.552 c -6.39999,3.968 -6.72,4.16 -7.808,4.16 -0.83199,0 -1.408,-0.896 -1.408,-2.048 0,-1.40799 0.57601,-4.352 1.792,-8.896 1.6,-6.33599 2.496,-9.92 2.496,-10.496 0,-0.448 -0.32,-0.768 -0.704,-0.768 -0.70399,0 -4.8,2.17601 -10.176,5.376 l -0.192,1.728 c 3.008,-1.53599 3.71201,-1.856 4.416,-1.856 0.64,0 0.96,0.384 0.96,0.96 0,1.152 -0.448,3.07201 -1.984,8.704 -1.53599,5.568 -1.856,6.97601 -1.856,8.64 0,2.048 0.96001,3.584 2.24,3.584 1.216,0 6.33601,-3.072 12.032,-7.168 -2.43199,11.71199 -2.432,11.71201 -3.2,14.08 -1.02399,3.264 -3.072,4.48 -7.232,4.48 -1.85599,0 -3.264,-0.256 -7.04,-1.152 l -2.56,4.352"
         style="text-align:center;line-height:100%;text-anchor:middle;baseline-shift:baseline;-inkscape-font-specification:URW Chancery L Medium Italic"
         id="path3023" />
      <path
         d="m 367.33857,816.90159 c -5.88799,4.032 -10.24,5.696 -14.72,5.696 -5.05599,0 -8.256,-3.84 -8.256,-9.92 0,-13.31198 9.40801,-26.56 18.88,-26.56 3.84,0 5.76,2.36801 6.144,7.424 l 4.736,-4.032 c -0.57599,-4.41599 -2.88,-6.4 -7.488,-6.4 -5.56799,0 -12.032,3.26401 -17.664,8.896 -6.20799,6.208 -9.856,14.72001 -9.856,23.04 0,6.592 3.64801,10.56 9.792,10.56 5.504,0 12.48001,-2.624 17.984,-6.784 l 0.448,-1.92"
         style="text-align:center;line-height:100%;text-anchor:middle;baseline-shift:baseline;-inkscape-font-specification:URW Chancery L Medium Italic"
         id="path3025" />
      <path
         d="m 371.53257,821.50959 4.544,-1.856 3.776,-14.912 c 0.64,-0.448 1.408,-0.896 1.536,-0.96 4.416,-2.81599 7.10401,-4.224 7.808,-4.224 0.448,0 0.768,0.448 0.768,1.024 0,0.768 -0.256,1.98401 -1.152,5.44 -1.98399,7.68 -2.752,11.39201 -2.752,13.12 0,0.768 0.25601,1.536 0.96,2.752 3.52,-1.79199 8.12801,-4.736 11.648,-7.296 l 0.448,-1.856 c -5.43999,3.2 -6.336,3.648 -7.168,3.648 -0.57599,0 -0.96,-0.64 -0.96,-1.664 0,-1.27999 0.38401,-3.136 1.472,-7.296 2.048,-7.55199 3.072,-11.456 3.072,-11.712 0,-0.64 -0.512,-1.088 -1.344,-1.088 -1.34399,0 -5.76,2.43201 -13.76,7.616 l 2.176,-8.576 c 1.536,-6.27199 2.17601,-8.256 3.008,-9.856 0.896,-1.79199 2.24001,-2.624 3.968,-2.624 0.832,0 1.34401,0.064 3.84,0.576 l 2.752,-3.904 c -1.15199,-0.256 -1.664,-0.32 -2.624,-0.32 -3.51999,0 -5.376,0.96001 -10.048,5.056 -3.32799,2.944 -3.84,4.03201 -5.824,12.48 l -6.144,26.432"
         style="text-align:center;line-height:100%;text-anchor:middle;baseline-shift:baseline;-inkscape-font-specification:URW Chancery L Medium Italic"
         id="path3027" />
      <path
         d="m 400.61757,821.57359 4.928,-1.856 4.8,-18.24 c 2.176,-1.59999 3.64801,-2.24 5.376,-2.24 1.408,0 2.24001,0.51201 3.392,1.984 l 1.92,-6.08 c -1.21599,-0.384 -1.728,-0.512 -2.368,-0.512 -1.15199,0 -2.496,0.576 -4.224,1.792 l -3.776,2.752 c 0.064,-0.512 0.192,-0.832 0.192,-1.024 0.512,-2.11199 0.576,-2.496 0.576,-2.816 0,-0.384 -0.384,-0.704 -0.832,-0.704 -0.83199,0 -6.464,2.75201 -10.368,5.12 l -0.192,1.728 c 3.456,-1.79199 3.84001,-1.92 4.608,-1.92 0.832,0 1.216,0.448 1.216,1.344 0,0.896 -0.64,3.90401 -1.408,6.656 l -3.84,14.016"
         style="text-align:center;line-height:100%;text-anchor:middle;baseline-shift:baseline;-inkscape-font-specification:URW Chancery L Medium Italic"
         id="path3029" />
      <path
         d="m 429.59557,789.31759 c 1.856,-1.66399 1.98401,-1.792 4.16,-3.456 -0.384,-0.768 -0.704,-1.28 -0.832,-1.472 -0.384,-0.768 -0.448,-0.832 -0.96,-2.048 -0.128,-0.256 -0.256,-0.512 -0.384,-0.832 -0.32,0.256 -0.704,0.512 -0.896,0.704 -0.256,0.256 -0.768,0.64 -1.408,1.152 -0.32,0.256 -0.768,0.576 -1.344,0.96 -0.256,0.192 -0.512,0.384 -0.768,0.512 0.448,1.408 1.02401,2.43201 2.432,4.48 m 4.416,24.192 c -6.07999,3.264 -6.208,3.328 -7.04,3.328 -0.70399,0 -1.152,-0.704 -1.152,-1.792 0,-0.64 0.192,-1.856 0.576,-3.264 3.264,-13.43998 3.904,-16 3.904,-16.512 0,-0.384 -0.32,-0.64 -0.768,-0.64 -1.08799,0 -4.864,2.11201 -10.112,5.632 l -0.128,1.792 c 3.776,-2.04799 4.09601,-2.176 4.672,-2.176 0.512,0 0.768,0.384 0.768,1.152 0,0.832 -0.192,1.72801 -1.152,5.376 -3.00799,11.19999 -3.008,11.20001 -3.008,12.8 0,1.536 0.64001,2.56 1.536,2.56 1.088,0 2.81601,-0.832 6.208,-3.008 1.216,-0.768 2.43201,-1.536 3.648,-2.368 0.576,-0.32 1.15201,-0.704 1.792,-1.088 l 0.256,-1.792"
         style="text-align:center;line-height:100%;text-anchor:middle;baseline-shift:baseline;-inkscape-font-specification:URW Chancery L Medium Italic"
         id="path3031" />
      <path
         d="m 432.23457,815.62159 c -0.064,0.576 -0.128,1.088 -0.128,1.472 0,2.752 1.92001,4.672 4.736,4.672 1.984,0 4.73601,-0.832 6.784,-1.984 3.776,-2.17599 6.08,-5.44 6.08,-8.64 0,-2.36799 -0.448,-2.88 -4.032,-5.12 -2.17599,-1.40799 -3.072,-2.624 -3.072,-4.288 0,-2.17599 1.85601,-4.096 4.032,-4.096 1.472,0 2.56001,0.70401 3.968,2.496 2.176,-2.11199 2.17601,-2.112 3.008,-3.328 -1.27999,-1.53599 -2.496,-2.176 -4.288,-2.176 -4.67199,0 -10.688,5.56801 -10.688,9.792 0,1.984 1.02401,3.52001 3.456,5.248 3.2,2.24 3.648,2.81601 3.648,4.416 0,2.304 -2.944,4.992 -5.44,4.992 -1.40799,0 -2.496,-0.768 -3.136,-2.176 -0.448,-0.96 -0.576,-1.92 -0.64,-4.096 -0.70399,0.512 -1.216,0.832 -1.472,1.024 -0.512,0.32 -1.088,0.64 -1.664,1.024 l -1.152,0.768"
         style="text-align:center;line-height:100%;text-anchor:middle;baseline-shift:baseline;-inkscape-font-specification:URW Chancery L Medium Italic"
         id="path3033" />
      <path
         d="m 473.21457,812.86959 c -4.86399,2.88 -6.912,3.968 -7.808,3.968 -0.83199,0 -1.856,-1.664 -1.856,-3.008 0,-0.896 1.08801,-5.824 2.752,-12.544 0.896,-0.064 1.536,-0.064 1.856,-0.064 l 2.56,-0.064 c 0.256,0 0.89601,-0.064 1.92,-0.192 l 2.432,-1.856 -8.192,0 2.56,-10.368 c -1.21599,0.64 -1.728,0.832 -2.688,1.28 -0.448,0.256 -0.96,0.448 -1.472,0.704 -0.256,0.128 -0.576,0.256 -0.896,0.384 l -1.792,8 c -0.57599,0.064 -0.96,0.064 -1.152,0.064 l -1.536,0 c -0.128,0 -0.448,0 -0.96,0.064 -0.70399,0.448 -0.768,0.448 -1.856,1.344 -0.192,0.128 -0.512,0.384 -0.96,0.704 l 1.536,0 2.944,0 1.408,0 c -3.39199,14.20799 -3.392,14.20801 -3.392,16.192 0,2.048 1.34401,4.288 2.56,4.288 1.408,0 5.76001,-2.688 11.904,-7.296 l 0.128,-1.6"
         style="text-align:center;line-height:100%;text-anchor:middle;baseline-shift:baseline;-inkscape-font-specification:URW Chancery L Medium Italic"
         id="path3035" />
      <path
         d="m 480.91457,819.84559 4.096,-15.552 c 4.288,-2.87999 6.91201,-4.416 7.744,-4.416 0.512,0 0.832,0.576 0.832,1.408 0,1.92 -2.432,11.64801 -5.12,20.288 l 4.864,-1.728 3.968,-16 c 3.712,-2.36799 7.16801,-4.288 7.936,-4.288 0.512,0 0.832,0.448 0.832,1.216 0,1.408 -0.576,4.03201 -2.304,10.88 -1.02399,3.968 -1.344,5.56801 -1.344,7.04 0,1.344 0.38401,2.048 1.536,2.88 3.776,-1.85599 6.97601,-3.904 10.88,-6.976 l 0,-1.472 c -0.63999,0.32 -1.344,0.768 -2.176,1.344 -2.30399,1.472 -3.392,1.984 -4.16,1.984 -0.70399,0 -1.152,-0.64 -1.152,-1.728 0,-1.40799 0.83201,-5.056 2.112,-9.536 1.92,-6.59199 2.432,-8.64 2.432,-9.6 0,-0.64 -0.384,-0.96 -1.024,-0.96 -1.15199,0 -5.12,2.04801 -12.928,6.656 0.192,-0.704 0.256,-1.216 0.32,-1.472 0.768,-3.19999 0.96,-4.096 0.96,-4.48 0,-0.448 -0.32,-0.704 -0.832,-0.704 -0.95999,0 -4.288,1.79201 -10.688,5.888 l -2.048,1.28 c 1.152,-4.67199 1.408,-5.824 1.408,-6.272 0,-0.512 -0.384,-0.896 -0.96,-0.896 -0.76799,0 -5.824,2.75201 -9.984,5.376 l -0.448,1.792 c 3.52,-1.72799 4.03201,-1.92 4.736,-1.92 0.576,0 0.96,0.512 0.96,1.216 0,1.024 -2.304,10.49601 -4.992,20.48 l 4.544,-1.728"
         style="text-align:center;line-height:100%;text-anchor:middle;baseline-shift:baseline;-inkscape-font-specification:URW Chancery L Medium Italic"
         id="path3037" />
      <path
         d="m 541.59557,812.61359 c -4.79999,3.2 -5.76,3.776 -6.4,3.776 -0.448,0 -0.768,-0.512 -0.768,-1.28 0,-1.66399 1.53601,-8.704 3.84,-17.216 0.704,-0.96 0.83201,-1.152 1.856,-2.304 -3.07199,-0.704 -5.312,-0.96 -8.064,-0.96 -2.62399,0 -3.84,0.256 -5.504,1.28 -2.30399,1.344 -4.992,3.328 -5.824,4.224 -2.36799,2.688 -5.056,11.32801 -5.056,16.512 0,3.072 1.02401,5.12 2.624,5.12 1.408,0 3.52001,-1.28 11.52,-7.04 -0.63999,2.944 -0.96,4.928 -0.96,5.696 0,0.832 0.38401,1.344 1.024,1.344 0.768,0 0.76801,0 5.888,-3.264 1.856,-1.216 3.32801,-2.24 5.76,-4.032 l 0.064,-1.856 m -12.48,0.384 c -3.77599,2.752 -5.696,3.84 -6.848,3.84 -1.02399,0 -1.664,-1.152 -1.664,-3.2 0,-3.19999 1.02401,-7.552 2.624,-11.2 1.536,-3.51999 2.94401,-4.864 5.12,-4.864 1.152,0 3.13601,0.32 5.44,0.832 -1.27999,4.864 -1.728,6.336 -1.792,6.656 -0.384,1.6 -0.704,3.20001 -1.088,4.864 -0.064,0.32 -0.256,1.088 -0.576,2.24 l -1.216,0.832"
         style="text-align:center;line-height:100%;text-anchor:middle;baseline-shift:baseline;-inkscape-font-specification:URW Chancery L Medium Italic"
         id="path3039" />
      <path
         d="m 539.73457,815.62159 c -0.064,0.576 -0.128,1.088 -0.128,1.472 0,2.752 1.92001,4.672 4.736,4.672 1.984,0 4.73601,-0.832 6.784,-1.984 3.776,-2.17599 6.08,-5.44 6.08,-8.64 0,-2.36799 -0.448,-2.88 -4.032,-5.12 -2.17599,-1.40799 -3.072,-2.624 -3.072,-4.288 0,-2.17599 1.85601,-4.096 4.032,-4.096 1.472,0 2.56001,0.70401 3.968,2.496 2.176,-2.11199 2.17601,-2.112 3.008,-3.328 -1.27999,-1.53599 -2.496,-2.176 -4.288,-2.176 -4.67199,0 -10.688,5.56801 -10.688,9.792 0,1.984 1.02401,3.52001 3.456,5.248 3.2,2.24 3.648,2.81601 3.648,4.416 0,2.304 -2.944,4.992 -5.44,4.992 -1.40799,0 -2.496,-0.768 -3.136,-2.176 -0.448,-0.96 -0.576,-1.92 -0.64,-4.096 -0.70399,0.512 -1.216,0.832 -1.472,1.024 -0.512,0.32 -1.088,0.64 -1.664,1.024 l -1.152,0.768"
         style="text-align:center;line-height:100%;text-anchor:middle;baseline-shift:baseline;-inkscape-font-specification:URW Chancery L Medium Italic"
         id="path3041" />
      <path
         d="m 96.761574,930.18159 4.095996,-16.448 10.24,0.256 c 0.832,-0.704 2.68801,-2.112 4.032,-2.944 0.32,-0.768 0.384,-0.896 0.64,-1.792 -2.68799,1.664 -4.928,2.24 -8.512,2.24 l -8.575996,-0.064 c -6.911993,0 -10.944003,1.02401 -14.464,3.52 -3.583996,2.624 -5.76,7.10401 -5.76,11.776 0,1.536 0.192001,2.62401 0.832,4.928 l 5.376,-2.432 c -1.023999,-3.00799 -1.28,-4.416 -1.28,-6.336 0,-5.75999 3.776006,-9.344 9.728,-9.344 0.768,0 1.856002,0.064 3.072,0.192 l -4.096,16.448 -2.304,2.944 1.6,0 -1.728,6.848 c -2.559997,10.23999 -4.096006,12.032 -10.176,12.032 -0.831999,0 -1.920002,-0.064 -4.288,-0.128 l -2.496,4.16 c 1.343999,0.128 2.496001,0.192 3.2,0.192 3.839997,0 6.592005,-1.216 10.816,-4.672 4.671996,-3.77599 6.336002,-6.528 7.872,-12.608 l 1.536,-6.144 c 3.647997,-0.192 6.655996,-0.384 6.847996,-0.448 1.792,-0.256 2.30401,-0.576 3.904,-2.176 l -10.111996,0"
         style="text-align:center;line-height:100%;text-anchor:middle;baseline-shift:baseline;-inkscape-font-specification:URW Chancery L Medium Italic"
         id="path3043" />
      <path
         d="m 111.74257,949.57359 4.928,-1.856 4.8,-18.24 c 2.176,-1.59999 3.64801,-2.24 5.376,-2.24 1.408,0 2.24001,0.51201 3.392,1.984 l 1.92,-6.08 c -1.21599,-0.384 -1.728,-0.512 -2.368,-0.512 -1.15199,0 -2.496,0.576 -4.224,1.792 l -3.776,2.752 c 0.064,-0.512 0.192,-0.832 0.192,-1.024 0.512,-2.11199 0.576,-2.496 0.576,-2.816 0,-0.384 -0.384,-0.704 -0.832,-0.704 -0.83199,0 -6.464,2.75201 -10.368,5.12 l -0.192,1.728 c 3.456,-1.79199 3.84001,-1.92 4.608,-1.92 0.832,0 1.216,0.448 1.216,1.344 0,0.896 -0.64,3.90401 -1.408,6.656 l -3.84,14.016"
         style="text-align:center;line-height:100%;text-anchor:middle;baseline-shift:baseline;-inkscape-font-specification:URW Chancery L Medium Italic"
         id="path3045" />
      <path
         d="m 148.20857,922.62959 c -2.55999,0 -6.656,1.85601 -10.432,4.672 -4.09599,3.072 -6.976,9.72801 -6.976,16.064 0,3.904 2.17601,6.4 5.568,6.4 1.792,0 3.58401,-0.64 6.528,-2.176 3.2,-1.79199 5.31201,-3.392 6.464,-4.928 2.56,-3.45599 4.608,-9.728 4.608,-14.144 0,-3.45599 -2.368,-5.888 -5.76,-5.888 m -3.328,3.008 c 2.56,0 4.16,2.49601 4.16,6.336 0,2.688 -0.896,6.01601 -2.496,9.152 -1.79199,3.648 -4.096,5.632 -6.528,5.632 -2.62399,0 -4.288,-2.368 -4.288,-6.016 0,-7.42399 4.67201,-15.104 9.152,-15.104"
         style="text-align:center;line-height:100%;text-anchor:middle;baseline-shift:baseline;-inkscape-font-specification:URW Chancery L Medium Italic"
         id="path3047" />
      <path
         d="m 161.28957,947.84559 4.096,-15.552 c 4.288,-2.87999 6.91201,-4.416 7.744,-4.416 0.512,0 0.832,0.576 0.832,1.408 0,1.92 -2.432,11.64801 -5.12,20.288 l 4.864,-1.728 3.968,-16 c 3.712,-2.36799 7.16801,-4.288 7.936,-4.288 0.512,0 0.832,0.448 0.832,1.216 0,1.408 -0.576,4.03201 -2.304,10.88 -1.02399,3.968 -1.344,5.56801 -1.344,7.04 0,1.344 0.38401,2.048 1.536,2.88 3.776,-1.85599 6.97601,-3.904 10.88,-6.976 l 0,-1.472 c -0.63999,0.32 -1.344,0.768 -2.176,1.344 -2.30399,1.472 -3.392,1.984 -4.16,1.984 -0.70399,0 -1.152,-0.64 -1.152,-1.728 0,-1.40799 0.83201,-5.056 2.112,-9.536 1.92,-6.59199 2.432,-8.64 2.432,-9.6 0,-0.64 -0.384,-0.96 -1.024,-0.96 -1.15199,0 -5.12,2.04801 -12.928,6.656 0.192,-0.704 0.256,-1.216 0.32,-1.472 0.768,-3.19999 0.96,-4.096 0.96,-4.48 0,-0.448 -0.32,-0.704 -0.832,-0.704 -0.95999,0 -4.288,1.79201 -10.688,5.888 l -2.048,1.28 c 1.152,-4.67199 1.408,-5.824 1.408,-6.272 0,-0.512 -0.384,-0.896 -0.96,-0.896 -0.76799,0 -5.824,2.75201 -9.984,5.376 l -0.448,1.792 c 3.52,-1.72799 4.03201,-1.92 4.736,-1.92 0.576,0 0.96,0.512 0.96,1.216 0,1.024 -2.304,10.49601 -4.992,20.48 l 4.544,-1.728"
         style="text-align:center;line-height:100%;text-anchor:middle;baseline-shift:baseline;-inkscape-font-specification:URW Chancery L Medium Italic"
         id="path3049" />
      <path
         d="m 205.31157,964.35759 c 1.984,0.256 4.80001,0.448 7.04,0.448 4.48,0 7.04001,-1.216 10.688,-5.12 3.712,-3.96799 3.96801,-4.67201 6.208,-15.104 2.24,-10.30399 3.45601,-15.104 5.632,-22.208 -0.83199,0.448 -1.536,0.832 -1.792,0.96 l -2.24,1.088 c -0.32,0.192 -0.832,0.384 -1.408,0.704 l -3.904,15.552 c -6.39999,3.968 -6.72,4.16 -7.808,4.16 -0.83199,0 -1.408,-0.896 -1.408,-2.048 0,-1.40799 0.57601,-4.352 1.792,-8.896 1.6,-6.33599 2.496,-9.92 2.496,-10.496 0,-0.448 -0.32,-0.768 -0.704,-0.768 -0.70399,0 -4.8,2.17601 -10.176,5.376 l -0.192,1.728 c 3.008,-1.53599 3.71201,-1.856 4.416,-1.856 0.64,0 0.96,0.384 0.96,0.96 0,1.152 -0.448,3.07201 -1.984,8.704 -1.53599,5.568 -1.856,6.97601 -1.856,8.64 0,2.048 0.96001,3.584 2.24,3.584 1.216,0 6.33601,-3.072 12.032,-7.168 -2.43199,11.71199 -2.432,11.71201 -3.2,14.08 -1.02399,3.264 -3.072,4.48 -7.232,4.48 -1.85599,0 -3.264,-0.256 -7.04,-1.152 l -2.56,4.352"
         style="text-align:center;line-height:100%;text-anchor:middle;baseline-shift:baseline;-inkscape-font-specification:URW Chancery L Medium Italic"
         id="path3051" />
      <path
         d="m 253.20857,922.62959 c -2.55999,0 -6.656,1.85601 -10.432,4.672 -4.09599,3.072 -6.976,9.72801 -6.976,16.064 0,3.904 2.17601,6.4 5.568,6.4 1.792,0 3.58401,-0.64 6.528,-2.176 3.2,-1.79199 5.31201,-3.392 6.464,-4.928 2.56,-3.45599 4.608,-9.728 4.608,-14.144 0,-3.45599 -2.368,-5.888 -5.76,-5.888 m -3.328,3.008 c 2.56,0 4.16,2.49601 4.16,6.336 0,2.688 -0.896,6.01601 -2.496,9.152 -1.79199,3.648 -4.096,5.632 -6.528,5.632 -2.62399,0 -4.288,-2.368 -4.288,-6.016 0,-7.42399 4.67201,-15.104 9.152,-15.104"
         style="text-align:center;line-height:100%;text-anchor:middle;baseline-shift:baseline;-inkscape-font-specification:URW Chancery L Medium Italic"
         id="path3053" />
      <path
         d="m 261.10557,929.73359 c 2.688,-1.34399 3.90401,-1.856 4.672,-1.856 0.512,0 0.896,0.512 0.896,1.216 0,0.832 -0.64,3.58401 -1.792,7.936 -1.59999,5.952 -1.984,7.74401 -1.984,9.6 0,1.792 0.76801,3.136 1.792,3.136 0.96,0 2.11201,-0.576 5.312,-2.688 l 6.592,-4.288 c -0.512,2.048 -0.896,4.352 -0.896,5.504 0,0.832 0.51201,1.472 1.152,1.472 1.28,0 7.36001,-3.584 11.712,-6.848 l 0.448,-1.92 c -4.99199,2.944 -6.656,3.84 -7.36,3.84 -0.448,0 -0.704,-0.512 -0.704,-1.536 0,-3.26399 2.36801,-12.8 5.12,-20.928 -0.83199,0.448 -1.408,0.768 -1.664,0.896 -0.76799,0.384 -1.536,0.768 -2.368,1.152 -0.192,0.064 -0.576,0.256 -1.28,0.64 -0.384,1.472 -1.664,6.59201 -3.776,15.424 -4.92799,3.392 -7.168,4.672 -7.936,4.672 -0.70399,0 -1.216,-0.896 -1.216,-2.112 0,-1.47199 0.51201,-4.032 1.6,-8.128 0.704,-2.55999 1.152,-4.352 1.344,-5.248 0.576,-2.36799 1.024,-4.032 1.152,-4.48 0.192,-0.704 0.32,-1.28 0.32,-1.728 0,-0.512 -0.32,-0.832 -0.768,-0.832 -0.63999,0 -5.312,2.49601 -9.92,5.376 l -0.448,1.728"
         style="text-align:center;line-height:100%;text-anchor:middle;baseline-shift:baseline;-inkscape-font-specification:URW Chancery L Medium Italic"
         id="path3055" />
      <path
         d="m 291.11757,949.57359 4.928,-1.856 4.8,-18.24 c 2.176,-1.59999 3.64801,-2.24 5.376,-2.24 1.408,0 2.24001,0.51201 3.392,1.984 l 1.92,-6.08 c -1.21599,-0.384 -1.728,-0.512 -2.368,-0.512 -1.15199,0 -2.496,0.576 -4.224,1.792 l -3.776,2.752 c 0.064,-0.512 0.192,-0.832 0.192,-1.024 0.512,-2.11199 0.576,-2.496 0.576,-2.816 0,-0.384 -0.384,-0.704 -0.832,-0.704 -0.83199,0 -6.464,2.75201 -10.368,5.12 l -0.192,1.728 c 3.456,-1.79199 3.84001,-1.92 4.608,-1.92 0.832,0 1.216,0.448 1.216,1.344 0,0.896 -0.64,3.90401 -1.408,6.656 l -3.84,14.016"
         style="text-align:center;line-height:100%;text-anchor:middle;baseline-shift:baseline;-inkscape-font-specification:URW Chancery L Medium Italic"
         id="path3057" />
      <path
         d="m 341.13257,928.96559 c 0.192,0 0.57601,0 1.28,0.064 l 2.624,-2.048 c -3.32799,-0.064 -3.328,-0.064 -4.032,-0.064 -0.76799,0 -0.768,0 -3.776,0.064 4.16,-16.25598 5.12001,-18.24 8.896,-18.24 1.088,0 1.92001,0.128 4.288,0.512 l 2.944,-3.456 c -1.27999,-0.32 -1.792,-0.384 -3.072,-0.384 -3.83999,0 -6.528,1.40801 -10.816,5.568 -3.58399,3.456 -4.416,5.37601 -6.912,16 -0.63999,-0.064 -0.96,-0.064 -1.28,-0.064 l -3.136,0.128 c -0.128,0 -0.448,0 -0.96,-0.064 -0.384,0.256 -0.768,0.512 -0.896,0.576 l -1.408,0.768 c -0.256,0.128 -0.768,0.384 -1.28,0.704 l 1.6,0 c 0,0 4.48,0.064 4.48,0.064 0.384,0 1.08801,0 2.368,-0.064 -1.02399,3.904 -1.408,5.63201 -2.624,11.2 -3.83999,17.59999 -5.312,20.48 -10.752,20.48 -0.89599,0 -1.664,-0.064 -3.392,-0.32 -0.63999,0.96 -0.832,1.28 -1.28,1.856 -0.512,0.704 -1.088,1.408 -1.6,2.176 1.408,0.192 2.11201,0.256 3.136,0.256 2.112,0 3.77601,-0.32 4.8,-0.896 1.856,-1.024 5.12001,-4.16 6.848,-6.4 1.984,-2.68799 4.28801,-8.192 5.76,-14.016 2.752,-10.43199 3.456,-13.056 3.776,-14.336 0.576,0.064 0.832,0.064 1.088,0.064 l 3.328,-0.128"
         style="text-align:center;line-height:100%;text-anchor:middle;baseline-shift:baseline;-inkscape-font-specification:URW Chancery L Medium Italic"
         id="path3059" />
      <path
         d="m 370.72057,940.61359 c -4.79999,3.2 -5.76,3.776 -6.4,3.776 -0.448,0 -0.768,-0.512 -0.768,-1.28 0,-1.66399 1.53601,-8.704 3.84,-17.216 0.704,-0.96 0.83201,-1.152 1.856,-2.304 -3.07199,-0.704 -5.312,-0.96 -8.064,-0.96 -2.62399,0 -3.84,0.256 -5.504,1.28 -2.30399,1.344 -4.992,3.328 -5.824,4.224 -2.36799,2.688 -5.056,11.32801 -5.056,16.512 0,3.072 1.02401,5.12 2.624,5.12 1.408,0 3.52001,-1.28 11.52,-7.04 -0.63999,2.944 -0.96,4.928 -0.96,5.696 0,0.832 0.38401,1.344 1.024,1.344 0.768,0 0.76801,0 5.888,-3.264 1.856,-1.216 3.32801,-2.24 5.76,-4.032 l 0.064,-1.856 m -12.48,0.384 c -3.77599,2.752 -5.696,3.84 -6.848,3.84 -1.02399,0 -1.664,-1.152 -1.664,-3.2 0,-3.19999 1.02401,-7.552 2.624,-11.2 1.536,-3.51999 2.94401,-4.864 5.12,-4.864 1.152,0 3.13601,0.32 5.44,0.832 -1.27999,4.864 -1.728,6.336 -1.792,6.656 -0.384,1.6 -0.704,3.20001 -1.088,4.864 -0.064,0.32 -0.256,1.088 -0.576,2.24 l -1.216,0.832"
         style="text-align:center;line-height:100%;text-anchor:middle;baseline-shift:baseline;-inkscape-font-specification:URW Chancery L Medium Italic"
         id="path3061" />
      <path
         d="m 372.76357,935.17359 c 0.32,-0.96 0.64,-1.856 0.704,-2.176 1.408,-4.03199 1.85601,-4.416 5.312,-4.352 2.56,-0.064 3.26401,-0.128 4.8,-0.448 -3.71199,4.16 -4.8,5.50401 -5.696,6.976 -1.85599,3.072 -2.944,6.72001 -2.944,9.856 0,2.944 1.34401,4.736 3.456,4.736 5.056,0 11.71201,-5.312 16.128,-12.864 2.496,-4.22399 4.224,-9.344 4.224,-12.48 0,-1.47199 -0.448,-2.432 -1.664,-3.456 -1.53599,0.448 -2.304,0.768 -4.288,1.728 0.768,1.728 1.024,2.75201 1.024,4.416 0,3.904 -1.152,8.00001 -3.328,11.712 -2.49599,4.224 -6.016,7.296 -8.384,7.296 -1.40799,0 -2.56,-1.664 -2.56,-3.84 0,-2.94399 1.02401,-6.464 2.816,-9.728 1.28,-2.23999 2.49601,-3.904 5.504,-7.36 0.064,-0.192 0.064,-0.384 0.064,-0.448 0,-0.192 0,-0.256 -0.128,-0.704 l -0.64,0 c -0.70399,0.832 -1.408,1.024 -3.456,1.024 l -1.536,0 c -3.96799,-0.192 -4.608,-0.192 -5.12,-0.192 -1.21599,0 -1.856,0.192 -2.24,0.704 -0.83199,1.024 -1.856,3.71201 -3.136,8.256 l 1.088,1.344"
         style="text-align:center;line-height:100%;text-anchor:middle;baseline-shift:baseline;-inkscape-font-specification:URW Chancery L Medium Italic"
         id="path3063" />
      <path
         d="m 417.20857,922.62959 c -2.55999,0 -6.656,1.85601 -10.432,4.672 -4.09599,3.072 -6.976,9.72801 -6.976,16.064 0,3.904 2.17601,6.4 5.568,6.4 1.792,0 3.58401,-0.64 6.528,-2.176 3.2,-1.79199 5.31201,-3.392 6.464,-4.928 2.56,-3.45599 4.608,-9.728 4.608,-14.144 0,-3.45599 -2.368,-5.888 -5.76,-5.888 m -3.328,3.008 c 2.56,0 4.16,2.49601 4.16,6.336 0,2.688 -0.896,6.01601 -2.496,9.152 -1.79199,3.648 -4.096,5.632 -6.528,5.632 -2.62399,0 -4.288,-2.368 -4.288,-6.016 0,-7.42399 4.67201,-15.104 9.152,-15.104"
         style="text-align:center;line-height:100%;text-anchor:middle;baseline-shift:baseline;-inkscape-font-specification:URW Chancery L Medium Italic"
         id="path3065" />
      <path
         d="m 425.61757,949.57359 4.928,-1.856 4.8,-18.24 c 2.176,-1.59999 3.64801,-2.24 5.376,-2.24 1.408,0 2.24001,0.51201 3.392,1.984 l 1.92,-6.08 c -1.21599,-0.384 -1.728,-0.512 -2.368,-0.512 -1.15199,0 -2.496,0.576 -4.224,1.792 l -3.776,2.752 c 0.064,-0.512 0.192,-0.832 0.192,-1.024 0.512,-2.11199 0.576,-2.496 0.576,-2.816 0,-0.384 -0.384,-0.704 -0.832,-0.704 -0.83199,0 -6.464,2.75201 -10.368,5.12 l -0.192,1.728 c 3.456,-1.79199 3.84001,-1.92 4.608,-1.92 0.832,0 1.216,0.448 1.216,1.344 0,0.896 -0.64,3.90401 -1.408,6.656 l -3.84,14.016"
         style="text-align:center;line-height:100%;text-anchor:middle;baseline-shift:baseline;-inkscape-font-specification:URW Chancery L Medium Italic"
         id="path3067" />
      <path
         d="m 454.59557,917.31759 c 1.856,-1.66399 1.98401,-1.792 4.16,-3.456 -0.384,-0.768 -0.704,-1.28 -0.832,-1.472 -0.384,-0.768 -0.448,-0.832 -0.96,-2.048 -0.128,-0.256 -0.256,-0.512 -0.384,-0.832 -0.32,0.256 -0.704,0.512 -0.896,0.704 -0.256,0.256 -0.768,0.64 -1.408,1.152 -0.32,0.256 -0.768,0.576 -1.344,0.96 -0.256,0.192 -0.512,0.384 -0.768,0.512 0.448,1.408 1.02401,2.43201 2.432,4.48 m 4.416,24.192 c -6.07999,3.264 -6.208,3.328 -7.04,3.328 -0.70399,0 -1.152,-0.704 -1.152,-1.792 0,-0.64 0.192,-1.856 0.576,-3.264 3.264,-13.43998 3.904,-16 3.904,-16.512 0,-0.384 -0.32,-0.64 -0.768,-0.64 -1.08799,0 -4.864,2.11201 -10.112,5.632 l -0.128,1.792 c 3.776,-2.04799 4.09601,-2.176 4.672,-2.176 0.512,0 0.768,0.384 0.768,1.152 0,0.832 -0.192,1.72801 -1.152,5.376 -3.00799,11.19999 -3.008,11.20001 -3.008,12.8 0,1.536 0.64001,2.56 1.536,2.56 1.088,0 2.81601,-0.832 6.208,-3.008 1.216,-0.768 2.43201,-1.536 3.648,-2.368 0.576,-0.32 1.15201,-0.704 1.792,-1.088 l 0.256,-1.792"
         style="text-align:center;line-height:100%;text-anchor:middle;baseline-shift:baseline;-inkscape-font-specification:URW Chancery L Medium Italic"
         id="path3069" />
      <path
         d="m 477.71457,940.86959 c -4.86399,2.88 -6.912,3.968 -7.808,3.968 -0.83199,0 -1.856,-1.664 -1.856,-3.008 0,-0.896 1.08801,-5.824 2.752,-12.544 0.896,-0.064 1.536,-0.064 1.856,-0.064 l 2.56,-0.064 c 0.256,0 0.89601,-0.064 1.92,-0.192 l 2.432,-1.856 -8.192,0 2.56,-10.368 c -1.21599,0.64 -1.728,0.832 -2.688,1.28 -0.448,0.256 -0.96,0.448 -1.472,0.704 -0.256,0.128 -0.576,0.256 -0.896,0.384 l -1.792,8 c -0.57599,0.064 -0.96,0.064 -1.152,0.064 l -1.536,0 c -0.128,0 -0.448,0 -0.96,0.064 -0.70399,0.448 -0.768,0.448 -1.856,1.344 -0.192,0.128 -0.512,0.384 -0.96,0.704 l 1.536,0 2.944,0 1.408,0 c -3.39199,14.20799 -3.392,14.20801 -3.392,16.192 0,2.048 1.34401,4.288 2.56,4.288 1.408,0 5.76001,-2.688 11.904,-7.296 l 0.128,-1.6"
         style="text-align:center;line-height:100%;text-anchor:middle;baseline-shift:baseline;-inkscape-font-specification:URW Chancery L Medium Italic"
         id="path3071" />
      <path
         d="m 499.30257,940.16559 c -4.79999,4.16 -7.872,5.952 -10.304,5.952 -1.59999,0 -2.944,-1.088 -3.392,-2.752 -0.256,-1.024 -0.32,-1.728 -0.32,-3.584 2.88,-1.79199 4.80001,-3.136 8.576,-5.952 3.456,-2.62399 4.8,-4.736 4.8,-7.616 0,-2.23999 -1.408,-3.584 -3.648,-3.584 -1.40799,0 -2.432,0.32 -3.904,1.152 -2.43199,1.408 -4.608,3.13601 -5.952,4.672 -2.43199,2.944 -4.608,9.98401 -4.608,15.168 0,3.776 1.98401,6.144 5.248,6.144 3.776,0 8.44801,-2.688 13.504,-7.744 l 0,-1.856 m -13.824,-2.688 c 1.088,-6.84799 4.03201,-12.16 6.784,-12.16 1.088,0 1.792,1.08801 1.792,2.624 0,3.2 -1.728,5.12001 -8.576,9.536"
         style="text-align:center;line-height:100%;text-anchor:middle;baseline-shift:baseline;-inkscape-font-specification:URW Chancery L Medium Italic"
         id="path3073" />
      <path
         d="m 521.28957,947.84559 4.096,-15.552 c 4.288,-2.87999 6.91201,-4.416 7.744,-4.416 0.512,0 0.832,0.576 0.832,1.408 0,1.92 -2.432,11.64801 -5.12,20.288 l 4.864,-1.728 3.968,-16 c 3.712,-2.36799 7.16801,-4.288 7.936,-4.288 0.512,0 0.832,0.448 0.832,1.216 0,1.408 -0.576,4.03201 -2.304,10.88 -1.02399,3.968 -1.344,5.56801 -1.344,7.04 0,1.344 0.38401,2.048 1.536,2.88 3.776,-1.85599 6.97601,-3.904 10.88,-6.976 l 0,-1.472 c -0.63999,0.32 -1.344,0.768 -2.176,1.344 -2.30399,1.472 -3.392,1.984 -4.16,1.984 -0.70399,0 -1.152,-0.64 -1.152,-1.728 0,-1.40799 0.83201,-5.056 2.112,-9.536 1.92,-6.59199 2.432,-8.64 2.432,-9.6 0,-0.64 -0.384,-0.96 -1.024,-0.96 -1.15199,0 -5.12,2.04801 -12.928,6.656 0.192,-0.704 0.256,-1.216 0.32,-1.472 0.768,-3.19999 0.96,-4.096 0.96,-4.48 0,-0.448 -0.32,-0.704 -0.832,-0.704 -0.95999,0 -4.288,1.79201 -10.688,5.888 l -2.048,1.28 c 1.152,-4.67199 1.408,-5.824 1.408,-6.272 0,-0.512 -0.384,-0.896 -0.96,-0.896 -0.76799,0 -5.824,2.75201 -9.984,5.376 l -0.448,1.792 c 3.52,-1.72799 4.03201,-1.92 4.736,-1.92 0.576,0 0.96,0.512 0.96,1.216 0,1.024 -2.304,10.49601 -4.992,20.48 l 4.544,-1.728"
         style="text-align:center;line-height:100%;text-anchor:middle;baseline-shift:baseline;-inkscape-font-specification:URW Chancery L Medium Italic"
         id="path3075" />
      <path
         d="m 555.73057,929.73359 c 2.688,-1.34399 3.90401,-1.856 4.672,-1.856 0.512,0 0.896,0.512 0.896,1.216 0,0.832 -0.64,3.58401 -1.792,7.936 -1.59999,5.952 -1.984,7.74401 -1.984,9.6 0,1.792 0.76801,3.136 1.792,3.136 0.96,0 2.11201,-0.576 5.312,-2.688 l 6.592,-4.288 c -0.512,2.048 -0.896,4.352 -0.896,5.504 0,0.832 0.51201,1.472 1.152,1.472 1.28,0 7.36001,-3.584 11.712,-6.848 l 0.448,-1.92 c -4.99199,2.944 -6.656,3.84 -7.36,3.84 -0.448,0 -0.704,-0.512 -0.704,-1.536 0,-3.26399 2.36801,-12.8 5.12,-20.928 -0.83199,0.448 -1.408,0.768 -1.664,0.896 -0.76799,0.384 -1.536,0.768 -2.368,1.152 -0.192,0.064 -0.576,0.256 -1.28,0.64 -0.384,1.472 -1.664,6.59201 -3.776,15.424 -4.92799,3.392 -7.168,4.672 -7.936,4.672 -0.70399,0 -1.216,-0.896 -1.216,-2.112 0,-1.47199 0.51201,-4.032 1.6,-8.128 0.704,-2.55999 1.152,-4.352 1.344,-5.248 0.576,-2.36799 1.024,-4.032 1.152,-4.48 0.192,-0.704 0.32,-1.28 0.32,-1.728 0,-0.512 -0.32,-0.832 -0.768,-0.832 -0.63999,0 -5.312,2.49601 -9.92,5.376 l -0.448,1.728"
         style="text-align:center;line-height:100%;text-anchor:middle;baseline-shift:baseline;-inkscape-font-specification:URW Chancery L Medium Italic"
         id="path3077" />
      <path
         d="m 605.39057,934.91759 c 0.256,-1.40799 0.576,-2.624 0.832,-3.648 l 0.96,-3.584 c 0.128,-0.576 0.256,-1.024 0.32,-1.408 1.152,-0.32 1.21601,-0.32 3.264,-3.584 -5.24799,0.128 -6.72,0.128 -7.424,0.128 -3.90399,0.064 -4.992,0.256 -6.912,1.408 -3.07199,1.92 -5.248,3.71201 -6.592,5.44 -1.91999,2.496 -4.224,10.24001 -4.224,14.144 0,1.6 0.38401,2.75201 1.408,4.16 l -7.36,6.336 c -3.19999,2.816 -4.672,4.92801 -4.672,6.72 0,2.368 2.81601,3.712 7.68,3.712 5.888,0 10.49601,-1.664 14.784,-5.376 2.752,-2.36799 3.39201,-3.712 4.736,-10.048 l 3.2,-14.4 m -8.384,17.536 c -0.83199,3.84 -1.408,5.312 -2.56,6.528 -1.40799,1.6 -4.032,2.432 -7.808,2.432 -4.15999,0 -6.4,-1.152 -6.4,-3.2 0,-2.62399 1.72802,-4.22401 19.52,-17.856 l -2.752,12.096 m 7.488,-26.24 2.048,0 c -0.32,0.256 -0.704,0.576 -1.024,0.768 -2.04799,1.472 -2.496,2.04801 -3.072,3.584 -0.57599,1.856 -1.28,4.35201 -2.112,7.488 -1.27999,0.832 -2.816,1.98401 -8.192,6.016 -1.15199,-1.152 -1.6,-2.176 -1.6,-3.712 0,-2.17599 1.53601,-7.744 2.88,-10.816 1.28,-2.62399 2.62401,-3.264 7.296,-3.264 0.448,0 1.21601,0 2.048,-0.064 l 1.728,0"
         style="text-align:center;line-height:100%;text-anchor:middle;baseline-shift:baseline;-inkscape-font-specification:URW Chancery L Medium Italic"
         id="path3079" />
      <path
         d="m 631.01557,934.91759 c 0.256,-1.40799 0.576,-2.624 0.832,-3.648 l 0.96,-3.584 c 0.128,-0.576 0.256,-1.024 0.32,-1.408 1.152,-0.32 1.21601,-0.32 3.264,-3.584 -5.24799,0.128 -6.72,0.128 -7.424,0.128 -3.90399,0.064 -4.992,0.256 -6.912,1.408 -3.07199,1.92 -5.248,3.71201 -6.592,5.44 -1.91999,2.496 -4.224,10.24001 -4.224,14.144 0,1.6 0.38401,2.75201 1.408,4.16 l -7.36,6.336 c -3.19999,2.816 -4.672,4.92801 -4.672,6.72 0,2.368 2.81601,3.712 7.68,3.712 5.888,0 10.49601,-1.664 14.784,-5.376 2.752,-2.36799 3.39201,-3.712 4.736,-10.048 l 3.2,-14.4 m -8.384,17.536 c -0.83199,3.84 -1.408,5.312 -2.56,6.528 -1.40799,1.6 -4.032,2.432 -7.808,2.432 -4.15999,0 -6.4,-1.152 -6.4,-3.2 0,-2.62399 1.72802,-4.22401 19.52,-17.856 l -2.752,12.096 m 7.488,-26.24 2.048,0 c -0.32,0.256 -0.704,0.576 -1.024,0.768 -2.04799,1.472 -2.496,2.04801 -3.072,3.584 -0.57599,1.856 -1.28,4.35201 -2.112,7.488 -1.27999,0.832 -2.816,1.98401 -8.192,6.016 -1.15199,-1.152 -1.6,-2.176 -1.6,-3.712 0,-2.17599 1.53601,-7.744 2.88,-10.816 1.28,-2.62399 2.62401,-3.264 7.296,-3.264 0.448,0 1.21601,0 2.048,-0.064 l 1.728,0"
         style="text-align:center;line-height:100%;text-anchor:middle;baseline-shift:baseline;-inkscape-font-specification:URW Chancery L Medium Italic"
         id="path3081" />
      <path
         d="m 650.88057,940.67759 c -0.89599,0.512 -1.472,0.896 -1.728,1.024 -4.60799,2.88 -5.12,3.136 -6.016,3.136 -0.57599,0 -1.152,-0.768 -1.152,-1.664 l 0,-0.576 0,-0.576 c 0,-1.152 2.88001,-13.56801 5.248,-22.592 2.496,-9.40799 3.07201,-10.56 5.888,-10.56 0.832,0 1.47201,0.064 3.136,0.448 l 2.752,-3.392 c -1.34399,-0.32 -2.048,-0.384 -2.88,-0.384 -2.55999,0 -4.608,1.02401 -7.68,3.776 -2.81599,2.56 -3.52,3.52001 -4.352,5.824 -0.512,1.536 -1.92,6.72001 -2.56,9.536 l -4.608,20.032 c -0.064,0.384 -0.128,0.768 -0.128,1.152 0,1.92 1.08801,3.904 2.112,3.904 l 0.384,0 0.192,0 c 0.64,0 3.32801,-1.856 11.392,-7.68 l 0,-1.408"
         style="text-align:center;line-height:100%;text-anchor:middle;baseline-shift:baseline;-inkscape-font-specification:URW Chancery L Medium Italic"
         id="path3083" />
      <path
         d="m 670.92757,940.16559 c -4.79999,4.16 -7.872,5.952 -10.304,5.952 -1.59999,0 -2.944,-1.088 -3.392,-2.752 -0.256,-1.024 -0.32,-1.728 -0.32,-3.584 2.88,-1.79199 4.80001,-3.136 8.576,-5.952 3.456,-2.62399 4.8,-4.736 4.8,-7.616 0,-2.23999 -1.408,-3.584 -3.648,-3.584 -1.40799,0 -2.432,0.32 -3.904,1.152 -2.43199,1.408 -4.608,3.13601 -5.952,4.672 -2.43199,2.944 -4.608,9.98401 -4.608,15.168 0,3.776 1.98401,6.144 5.248,6.144 3.776,0 8.44801,-2.688 13.504,-7.744 l 0,-1.856 m -13.824,-2.688 c 1.088,-6.84799 4.03201,-12.16 6.784,-12.16 1.088,0 1.792,1.08801 1.792,2.624 0,3.2 -1.728,5.12001 -8.576,9.536"
         style="text-align:center;line-height:100%;text-anchor:middle;baseline-shift:baseline;-inkscape-font-specification:URW Chancery L Medium Italic"
         id="path3085" />
    </g>
    <path
       style="fill:#f44336;stroke:none"
       d="m 0.22937212,588.11278 c 1.54500138,0 3.06829518,0 4.57203848,0 21.1701124,0 38.4656584,0 57.9125014,0 l 0,148.02004 -57.9125014,0 -4.57203848,0 z"
       id="rect4377"
       inkscape:connector-curvature="0"
       sodipodi:nodetypes="csccccc" />
    <path
       style="fill:#4caf50;stroke:none"
       d="m 62.121144,588.11272 c 1.544997,0 3.068293,0 4.572036,0 21.170113,0 38.46566,0 57.9125,0 l 0,148.02003 -57.9125,0 -4.572036,0 z"
       id="rect4377-2"
       inkscape:connector-curvature="0"
       sodipodi:nodetypes="csccccc" />
    <path
       style="fill:#f44336;stroke:none"
       d="m 124.55584,588.11276 c 1.545,0 3.06831,0 4.57204,0 21.17011,0 38.46567,0 57.91251,0 l 0,148.02004 -57.91251,0 -4.57204,0 z"
       id="rect4377-25"
       inkscape:connector-curvature="0"
       sodipodi:nodetypes="csccccc" />
    <path
       style="fill:#4caf50;stroke:none"
       d="m 186.44762,588.1127 c 1.545,0 3.06828,0 4.57204,0 21.17011,0 38.46565,0 57.9125,0 l 0,148.02003 -57.9125,0 -4.57204,0 z"
       id="rect4377-2-6"
       inkscape:connector-curvature="0"
       sodipodi:nodetypes="csccccc" />
    <path
       style="fill:#f44336;stroke:none"
       d="m 248.36124,588.11276 c 1.54501,0 3.06831,0 4.57205,0 21.17011,0 38.46565,0 57.91249,0 l 0,148.02004 -57.91249,0 -4.57205,0 z"
       id="rect4377-1"
       inkscape:connector-curvature="0"
       sodipodi:nodetypes="csccccc" />
    <path
       style="fill:#4caf50;stroke:none"
       d="m 310.25302,588.1127 c 1.54501,0 3.0683,0 4.57203,0 21.17013,0 38.46567,0 57.91251,0 l 0,148.02003 -57.91251,0 -4.57203,0 z"
       id="rect4377-2-62"
       inkscape:connector-curvature="0"
       sodipodi:nodetypes="csccccc" />
    <path
       style="fill:#f44336;stroke:none"
       d="m 372.14482,588.11276 c 1.545,0 3.06829,0 4.57204,0 21.17011,0 38.46565,0 57.91249,0 l 0,148.02004 -57.91249,0 -4.57204,0 z"
       id="rect4377-5"
       inkscape:connector-curvature="0"
       sodipodi:nodetypes="csccccc" />
    <path
       style="fill:#4caf50;stroke:none"
       d="m 434.03659,588.1127 c 1.54498,0 3.06829,0 4.57204,0 21.1701,0 38.46565,0 57.9125,0 l 0,148.02003 -57.9125,0 -4.57204,0 z"
       id="rect4377-2-8"
       inkscape:connector-curvature="0"
       sodipodi:nodetypes="csccccc" />
    <path
       style="fill:#f44336;stroke:none"
       d="m 495.90656,588.11276 c 1.545,0 3.06831,0 4.57205,0 21.1701,0 38.46566,0 57.91249,0 l 0,148.02004 -57.91249,0 -4.57205,0 z"
       id="rect4377-6"
       inkscape:connector-curvature="0"
       sodipodi:nodetypes="csccccc" />
    <path
       style="fill:#4caf50;stroke:none"
       d="m 557.79834,588.1127 c 1.54499,0 3.0683,0 4.57204,0 21.17009,0 38.46566,0 57.91249,0 l 0,148.02003 -57.91249,0 -4.57204,0 z"
       id="rect4377-2-0"
       inkscape:connector-curvature="0"
       sodipodi:nodetypes="csccccc" />
    <path
       style="fill:#f44336;stroke:none"
       d="m 619.69015,588.11276 c 1.54499,0 3.06827,0 4.57202,0 21.17013,0 38.46566,0 57.91252,0 l 0,148.02004 -57.91252,0 -4.57202,0 z"
       id="rect4377-9"
       inkscape:connector-curvature="0"
       sodipodi:nodetypes="csccccc" />
    <path
       style="fill:#4caf50;stroke:none"
       d="m 681.58192,588.1127 c 1.54576,0 3.06982,0 4.57435,0 21.1808,0 38.48507,0 57.94175,0 l 0,148.02003 -57.94175,0 -4.57435,0 z"
       id="rect4377-2-4"
       inkscape:connector-curvature="0"
       sodipodi:nodetypes="csccccc" />
    <path
       style="fill:none;stroke:#000000;stroke-width:6;stroke-linecap:butt;stroke-linejoin:miter;stroke-miterlimit:4;stroke-opacity:1;stroke-dasharray:none"
       d="m 87.697473,296.09503 -16.249512,0"
       id="path3847"
       inkscape:connector-curvature="0" />
    <path
       style="fill:none;stroke:#000000;stroke-width:6;stroke-linecap:butt;stroke-linejoin:miter;stroke-miterlimit:4;stroke-opacity:1;stroke-dasharray:none"
       d="m 678.95727,296.11533 -16.24952,0"
       id="path3847-0"
       inkscape:connector-curvature="0" />
  </g>
</svg>
